<?xml version="1.0" encoding="UTF-8"?>
<svg id="Layer_1" xmlns="http://www.w3.org/2000/svg" viewBox="0 0 928.7 714">
  <path d="M86.29,610.59v22.89h-27.58v80.53h-28.75v-80.53H2.69v-22.89h83.61Z" fill="#fff"/>
  <path d="M189.56,610.59v103.41h-28.75v-41.51h-35.06v41.51h-28.75v-103.41h28.75v38.87h35.06v-38.87h28.75Z" fill="#fff"/>
  <path d="M234.74,633.62v16.87h33v21.85h-33v18.63h37.4v23.03h-66.16v-103.41h66.16v23.03h-37.4Z" fill="#fff"/>
  <path d="M343.14,692h32.12v22h-60.88v-103.41h28.75v81.41Z" fill="#fff"/>
  <path d="M415.16,610.59v103.41h-28.75v-103.41h28.75Z" fill="#fff"/>
  <path d="M512.04,669.92c3.57,4.65,5.35,9.95,5.35,15.92,0,8.8-3.03,15.7-9.1,20.68-6.06,4.99-14.57,7.48-25.52,7.48h-51.19v-103.41h49.58c10.56,0,18.85,2.35,24.86,7.04,6.01,4.7,9.02,11.29,9.02,19.81,0,6.06-1.59,11.12-4.77,15.18-3.18,4.06-7.41,6.82-12.69,8.29,6.06,1.37,10.88,4.38,14.45,9.02ZM460.34,651.66h14.52c7.24,0,10.85-2.98,10.85-8.95s-3.62-9.24-10.85-9.24h-14.52v18.19ZM487.92,681.73c0-3.13-.95-5.52-2.86-7.19-1.91-1.66-4.62-2.49-8.14-2.49h-16.58v18.78h16.72c7.23,0,10.85-3.03,10.85-9.09Z" fill="#fff"/>
  <path d="M582.38,714l-20.54-38.14h-3.08v38.14h-28.75v-103.41h45.33c8.31,0,15.35,1.45,21.12,4.33,5.77,2.89,10.12,6.85,13.06,11.88,2.93,5.04,4.4,10.69,4.4,16.94,0,7.04-1.93,13.23-5.79,18.55-3.86,5.33-9.51,9.12-16.94,11.37l23.32,40.34h-32.12ZM558.76,656.21h14.23c3.91,0,6.84-.93,8.8-2.79,1.95-1.86,2.93-4.55,2.93-8.07,0-3.32-1-5.94-3.01-7.85-2.01-1.9-4.91-2.86-8.73-2.86h-14.23v21.56Z" fill="#fff"/>
  <path d="M692.39,697.13h-36.67l-5.57,16.87h-30.22l37.7-103.41h33.15l37.55,103.41h-30.36l-5.57-16.87ZM685.2,675.13l-11.15-33.44-11,33.44h22.15Z" fill="#fff"/>
  <path d="M790.09,714l-20.54-38.14h-3.08v38.14h-28.75v-103.41h45.33c8.31,0,15.35,1.45,21.13,4.33,5.76,2.89,10.12,6.85,13.05,11.88,2.93,5.04,4.4,10.69,4.4,16.94,0,7.04-1.93,13.23-5.79,18.55-3.87,5.33-9.51,9.12-16.95,11.37l23.32,40.34h-32.12ZM766.46,656.21h14.23c3.91,0,6.84-.93,8.8-2.79,1.95-1.86,2.93-4.55,2.93-8.07,0-3.32-1-5.94-3.01-7.85-2.01-1.9-4.91-2.86-8.73-2.86h-14.23v21.56Z" fill="#fff"/>
  <path d="M928.7,610.59l-36.38,70.56v32.86h-28.9v-32.86l-36.38-70.56h32.86l18.19,39.9,18.19-39.9h32.41Z" fill="#fff"/>
  <path d="M517.62.67v141.67h-170.72l.19,431.96-178.18-136.39V142.33H0V.67h517.62Z" fill="#fff"/>
  <path d="M729.58,436.47h198.88v136.22h-376.86V0l177.99,136.39v300.07Z" fill="#fff"/>
</svg>